# xmcd CD database file
#
# Track frame offsets:
#	150
#	18375
#	35840
#	55805
#	68035
#	85540
#	98757
#	115720
#	131400
#	144890
#	162337
#	174150
#
# Disc length: 2533 seconds
#
# Revision: 2
# Processed by: cddbd v1.5.2PL0 Copyright (c) Steve Scherf et al.
# Submitted via: CDex 1.70beta2
#
DISCID=8e09e30c
DTITLE=Various Artist - Putumayo Presents Paris
DYEAR=2006
DGENRE=Pop
TTITLE0=Thomas Fersen - Au Café de la Paix
TTITLE1=Coralie Clément  - Samba de mon coeur qui bat
TTITLE2=Karpatt - Dites moi tu
TTITLE3=Carla Bruni - Quelqu'un m'a dit
TTITLE4=Pascal Parisot - Je reste au lit
TTITLE5=Keren Ann - Jardin d'hiver
TTITLE6=Tryo - Serre-moi
TTITLE7=Paris Combo - Lettre A P...
TTITLE8=Presque Oui - L'ongle
TTITLE9=Amélie-Les-Crayons - Ta p'tite flamme
TTITLE10=Myrtille - Les pages 
TTITLE11=Aldebert - Carpe diem
EXTD=YEAR: 2006
EXTT0=
EXTT1=
EXTT2=
EXTT3=
EXTT4=
EXTT5=
EXTT6=
EXTT7=
EXTT8=
EXTT9=
EXTT10=
EXTT11=
PLAYORDER=
